<svg width="104" height="118" viewBox="0 0 104 118" fill="none" xmlns="http://www.w3.org/2000/svg">
<path d="M71.539 60.9479V56.3421H76.0636V39.7633H81V12.1316H80.5889H76.8865V11.6711V7.52637H67.0144V2H37.3972V7.52637H28.3475V12.5922H23V39.7633H27.5248V56.3421H32.461V66.474H37.3972V72H66.1915" stroke="#2E2E3A" stroke-width="3"/>
<path d="M23 20.0947H29V26.6281H41V33.1614H63.4999V26.6281H74.9999V20.6392H81" stroke="#2E2E3A" stroke-width="3"/>
<path d="M37.2305 35.0283V45.7614H42.2148V56.4951" stroke="#2E2E3A" stroke-width="3"/>
<path d="M12.9382 117.258H16.1457V109.213H20.5053C20.578 109.213 20.6403 109.213 20.7129 109.213L25.031 117.258H28.6848L23.9722 108.653C26.5776 107.688 27.8751 105.518 27.8751 102.664C27.8751 98.7504 25.4462 96 20.5157 96H12.9382V117.258ZM16.1457 106.453V98.7504H20.1731C23.3391 98.7504 24.6469 100.256 24.6469 102.664C24.6469 105.061 23.3391 106.453 20.2147 106.453H16.1457ZM38.5072 117.611C41.1437 117.611 42.6281 116.272 43.2198 115.078H43.3443V117.258H46.3755V106.67C46.3755 102.031 42.7215 101.107 40.1888 101.107C37.3031 101.107 34.6458 102.269 33.6078 105.176L36.5246 105.84C36.9813 104.709 38.1439 103.619 40.2303 103.619C42.2337 103.619 43.2613 104.667 43.2613 106.473V106.546C43.2613 107.678 42.0987 107.657 39.2338 107.989C36.2132 108.342 33.12 109.131 33.12 112.753C33.12 115.888 35.4762 117.611 38.5072 117.611ZM39.1819 115.12C37.4277 115.12 36.1613 114.331 36.1613 112.795C36.1613 111.134 37.6353 110.542 39.431 110.304C40.4379 110.168 42.8253 109.899 43.2716 109.452V111.508C43.2716 113.397 41.7665 115.12 39.1819 115.12ZM55.9511 107.792C55.9511 105.249 57.5081 103.795 59.667 103.795C61.7743 103.795 63.0513 105.176 63.0513 107.491V117.258H66.1547V107.117C66.1547 103.172 63.9853 101.107 60.7261 101.107C58.3284 101.107 56.7609 102.217 56.0237 103.91H55.8264V101.314H52.8477V117.258H55.9511V107.792ZM77.2955 117.611C79.9322 117.611 81.4165 116.272 82.008 115.078H82.1327V117.258H85.1635V106.67C85.1635 102.031 81.5097 101.107 78.9772 101.107C76.0912 101.107 73.434 102.269 72.3963 105.176L75.3129 105.84C75.7696 104.709 76.932 103.619 79.0188 103.619C81.0219 103.619 82.0496 104.667 82.0496 106.473V106.546C82.0496 107.678 80.8867 107.657 78.0222 107.989C75.0014 108.342 71.9081 109.131 71.9081 112.753C71.9081 115.888 74.2643 117.611 77.2955 117.611ZM77.9701 115.12C76.2159 115.12 74.9494 114.331 74.9494 112.795C74.9494 111.134 76.4237 110.542 78.2195 110.304C79.2261 110.168 81.6134 109.899 82.0601 109.452V111.508C82.0601 113.397 80.5547 115.12 77.9701 115.12Z" fill="#2E2E3A"/>
<path d="M89.1636 96.0818V102.061H90.7516V98.581H90.7982L92.1295 102.014H93.0872L94.4181 98.6042H94.4652V102.061H96.0532V96.0818H94.0331L92.6433 99.4684H92.5734L91.1836 96.0818H89.1636ZM103.062 98.3238C102.934 96.8408 101.848 96 100.341 96C98.7295 96 97.4567 97.0742 97.4567 99.0715C97.4567 101.06 98.6944 102.142 100.341 102.142C102.093 102.142 102.98 100.928 103.062 99.9118L101.415 99.9004C101.334 100.411 100.972 100.729 100.376 100.729C99.585 100.729 99.1264 100.169 99.1264 99.0715C99.1264 98.032 99.5704 97.4131 100.388 97.4131C101.013 97.4131 101.368 97.7808 101.415 98.3238H103.062Z" fill="#2E2E3A"/>
</svg>
