<svg width="222" height="319" viewBox="0 0 222 319" fill="none" xmlns="http://www.w3.org/2000/svg">
<rect x="2.5" y="2.5" width="217" height="314" stroke="#2E2E3A" stroke-width="5"/>
<path d="M142.156 150.088V142.971H149.255V117.353H157V74.6557H156.355H150.546V73.9441V67.5395H135.057V59H88.5887V67.5395H74.3901V75.3673H66V117.353H73.0993V142.971H80.844V158.627H88.5887V167.166H133.766" stroke="#2E2E3A" stroke-width="6"/>
<path d="M66 86.96H75.4138V97.0555H94.2414V107.151H129.543V97.0555H147.586V87.8013H157" stroke="#2E2E3A" stroke-width="6"/>
<path d="M88.3281 110.035V126.621H96.1484V143.207" stroke="#2E2E3A" stroke-width="6"/>
<path d="M33.1136 270H40.1364V252.386H49.6818C49.8409 252.386 49.9773 252.386 50.1364 252.386L59.5909 270H67.5909L57.2727 251.159C62.9773 249.045 65.8182 244.295 65.8182 238.045C65.8182 229.477 60.5 223.455 49.7045 223.455H33.1136V270ZM40.1364 246.341V229.477H48.9545C55.8864 229.477 58.75 232.773 58.75 238.045C58.75 243.295 55.8864 246.341 49.0455 246.341H40.1364ZM89.0973 270.773C94.87 270.773 98.12 267.841 99.4155 265.227H99.6882V270H106.325V246.818C106.325 236.659 98.3245 234.636 92.7791 234.636C86.4609 234.636 80.6427 237.182 78.37 243.545L84.7564 245C85.7564 242.523 88.3018 240.136 92.87 240.136C97.2564 240.136 99.5064 242.432 99.5064 246.386V246.545C99.5064 249.023 96.9609 248.977 90.6882 249.705C84.0745 250.477 77.3018 252.205 77.3018 260.136C77.3018 267 82.4609 270.773 89.0973 270.773ZM90.5745 265.318C86.7336 265.318 83.9609 263.591 83.9609 260.227C83.9609 256.591 87.1882 255.295 91.12 254.773C93.3245 254.477 98.5518 253.886 99.5291 252.909V257.409C99.5291 261.545 96.2336 265.318 90.5745 265.318ZM127.291 249.273C127.291 243.705 130.7 240.523 135.427 240.523C140.041 240.523 142.837 243.545 142.837 248.614V270H149.632V247.795C149.632 239.159 144.882 234.636 137.746 234.636C132.496 234.636 129.064 237.068 127.45 240.773H127.018V235.091H120.496V270H127.291V249.273ZM174.025 270.773C179.798 270.773 183.048 267.841 184.343 265.227H184.616V270H191.252V246.818C191.252 236.659 183.252 234.636 177.707 234.636C171.388 234.636 165.57 237.182 163.298 243.545L169.684 245C170.684 242.523 173.229 240.136 177.798 240.136C182.184 240.136 184.434 242.432 184.434 246.386V246.545C184.434 249.023 181.888 248.977 175.616 249.705C169.002 250.477 162.229 252.205 162.229 260.136C162.229 267 167.388 270.773 174.025 270.773ZM175.502 265.318C171.661 265.318 168.888 263.591 168.888 260.227C168.888 256.591 172.116 255.295 176.048 254.773C178.252 254.477 183.479 253.886 184.457 252.909V257.409C184.457 261.545 181.161 265.318 175.502 265.318Z" fill="#2E2E3A"/>
</svg>
